# xmcd
#
# Track frame offsets: 
#        150
#        16223
#        29683
#        52578
#        67528
#        88910
#        107970
#        126210
#        139395
#        152283
#        168958
#        183110
#        196895
#        213283
#        226428
#        239013
#        251963
#        266995
#        281653
#        298543
#        313915
#        326093
#
# Disc length: 4608 seconds
#
# Revision: 0
# Processed by: cddbd v1.4PL0 Copyright (c) Steve Scherf et al.
# Submitted via: ExactAudioCopy v0.90b4
#
DISCID=4511fe16
DTITLE=Kenny Rogers - The Hit Albums
DYEAR=1995
DGENRE=Country
TTITLE0=The Gambler
TTITLE1=I Wish That I Could Hurt That Way Again
TTITLE2=The King Of Oak Street
TTITLE3=Making Music For Money
TTITLE4=The Hoodooin' Of Miss Fannie Deberry
TTITLE5=She Believes In Me
TTITLE6=Tennesse Bottle
TTITLE7=Sleep Tight, Goodnight Man
TTITLE8=A Little Mre Like Me (The Crucifixion)
TTITLE9=San Francisco Mabel Joy
TTITLE10=Morgana Jones
TTITLE11=You Turn The Light On
TTITLE12=You Decorated My Life
TTITLE13=She's A Mystery
TTITLE14=Goodbye Marie
TTITLE15=Tulsa Turnaround
TTITLE16=I Want To Make You Smile
TTITLE17=Santiago Midnight Moonlight
TTITLE18=One Man's Woman
TTITLE19=In And Out Of Your Heart
TTITLE20=Old Folks
TTITLE21=Coward Of The Country
EXTD=
EXTT0=
EXTT1=
EXTT2=
EXTT3=
EXTT4=
EXTT5=
EXTT6=
EXTT7=
EXTT8=
EXTT9=
EXTT10=
EXTT11=
EXTT12=
EXTT13=
EXTT14=
EXTT15=
EXTT16=
EXTT17=
EXTT18=
EXTT19=
EXTT20=
EXTT21=
PLAYORDER=
